<?xml version="1.0" encoding="utf-8"?>
<svg version="1.1" id="Layer_1" xmlns="http://www.w3.org/2000/svg" x="0px" y="0px" width="100%" viewBox="0 0 768 768" enable-background="new 0 0 768 768">
  <g>
    <path opacity="1.000000" stroke="none" d=" M308.912384,452.334839 C316.987762,452.515289 324.657166,452.822388 332.306824,452.557770 C336.495941,452.412811 339.407959,453.776489 341.382751,457.317810 C343.229828,460.629913 346.504700,463.007538 347.673737,466.600189 C346.928833,468.151733 345.679199,468.035797 344.538391,468.039001 C333.374725,468.069885 322.168549,468.698578 311.057220,467.941956 C294.515961,466.815643 281.635590,458.964325 275.195953,443.291626 C268.517700,427.038055 271.237854,411.784393 283.550385,398.940704 C291.536102,390.610596 301.838562,386.922668 313.272003,386.794189 C328.915344,386.618286 344.562164,386.750214 360.522064,386.157166 C335.148071,377.067017 315.310791,361.548340 303.279694,337.351227 C291.205658,313.067719 290.555023,288.089844 300.417419,262.809814 C313.526794,229.206863 346.858124,208.230103 375.285309,207.399734 C375.653748,212.120789 374.077026,216.483536 372.768951,220.850006 C372.278564,222.486908 370.467316,222.608032 369.038422,222.986053 C335.445343,231.873734 314.964661,253.530441 309.940399,287.694183 C306.036652,314.238831 316.041992,336.855347 336.249268,354.519714 C379.731354,392.530029 447.168304,369.046570 459.385590,311.339722 C466.986145,275.439575 445.769928,237.424011 408.991730,225.366119 C407.725739,224.951035 406.452179,224.559052 405.184662,224.148453 C397.235657,221.573578 394.139954,216.494583 395.055481,207.534912 C420.811310,207.421829 456.027710,226.910019 469.961395,263.237915 C479.541504,288.215271 478.853455,313.248383 466.898590,337.356049 C455.003204,361.343750 435.513824,376.911896 410.230377,385.275940 C410.869263,386.781586 411.803894,386.657532 412.582245,386.645752 C429.225891,386.393890 445.883545,387.336761 462.507111,385.424896 C475.728058,383.904327 489.070007,383.188324 501.941467,379.534729 C511.741516,376.752960 521.210266,372.987000 529.805847,367.435516 C535.851257,363.531006 541.485718,359.076477 544.138000,351.941223 C544.914917,349.851074 545.919495,347.847534 548.541077,347.776672 C551.359863,347.700409 552.683105,349.738281 553.542908,351.968109 C556.323303,359.178894 557.379028,366.787018 558.161865,374.400421 C560.133606,393.577057 559.197510,412.630737 555.189758,431.508118 C554.635620,434.118256 554.049011,436.759827 552.349243,438.909546 C549.978516,441.907898 546.542847,441.889130 545.212097,438.385223 C541.044800,427.412872 531.654175,422.348663 522.236572,417.321045 C515.313538,413.625153 507.863464,411.140472 500.353607,408.892395 C498.636993,408.378510 496.879395,407.626160 495.127106,408.777008 C494.525909,410.430054 495.491699,411.744537 495.912262,413.133087 C504.403381,441.168945 488.285461,465.542938 459.116730,467.857574 C447.857269,468.751068 436.468933,468.025726 425.139313,468.017517 C424.317657,468.016907 423.463654,467.928986 422.933258,467.126343 C425.344269,458.133362 432.180969,452.723816 441.138550,452.717682 C446.970856,452.713654 452.804321,452.777893 458.635193,452.682434 C471.576782,452.470520 482.691101,441.019928 482.992737,427.677002 C483.286316,414.690582 473.532410,403.979034 460.263794,403.322479 C426.796448,401.666534 393.297180,402.487427 359.810974,402.411224 C343.825684,402.374847 327.839844,402.770691 311.853607,402.880005 C299.811554,402.962341 288.883484,411.842010 287.343262,422.956940 C285.584412,435.649719 293.238312,447.815704 305.140656,451.247284 C306.260498,451.570129 307.379028,451.897675 308.912384,452.334839 M519.421265,382.056305 C515.908447,383.375671 512.395630,384.695038 508.882812,386.014404 C521.865234,387.647095 533.151917,382.648254 544.257263,377.349030 C547.100647,379.984924 546.435608,384.113373 549.617432,387.314423 C549.890015,380.925018 549.723145,375.527771 548.657227,370.159973 C547.794800,365.816559 546.062805,365.127930 542.654297,368.142853 C535.959106,374.065094 528.338440,378.380371 519.421265,382.056305 z" style="fill: rgb(200, 161, 74);"/>
    <path opacity="1.000000" stroke="none" d=" M377.229004,187.352448 C340.161896,190.505249 311.639160,207.480942 291.541595,238.078873 C278.124115,258.506531 272.560760,281.364075 274.696381,305.654755 C275.794495,318.145264 280.818085,329.784851 286.113647,341.160339 C291.682800,353.123535 298.447998,364.392090 305.538330,375.485565 C306.513306,377.011047 307.722900,378.438354 307.850189,380.738831 C304.009918,382.699188 299.650269,383.005951 295.553040,384.126526 C293.399506,384.715546 292.217102,382.984192 291.191833,381.449371 C275.613739,358.129181 262.436249,333.738983 259.310059,305.273407 C257.075897,284.930176 261.035095,265.374054 269.376465,246.889633 C284.938599,212.403900 310.641998,188.634262 346.984283,177.578400 C421.494995,154.911133 498.139038,200.715179 510.130676,279.401581 C513.629395,302.359222 509.348541,324.145172 499.696533,345.005768 C495.078583,354.986420 489.693939,364.573334 484.138916,374.071686 C482.231171,377.333649 479.838684,378.908051 476.181885,379.056183 C471.923767,379.228699 467.672424,379.568787 463.508789,379.830475 C462.715240,377.194794 464.378937,375.954437 465.306061,374.484558 C474.915863,359.249481 483.772552,343.692322 490.157898,326.710968 C499.042969,303.081604 497.408600,279.942841 488.163818,257.074097 C475.088776,224.730545 451.727631,203.054230 418.632599,192.106659 C405.385559,187.724640 391.617340,186.598083 377.229004,187.352448 z" style="fill: rgb(201, 162, 72);"/>
    <path opacity="1.000000" stroke="none" d=" M379.460632,472.558685 C379.952942,473.261475 380.236542,473.672668 380.528229,474.078094 C384.800354,480.016418 385.003937,479.897217 389.511932,473.983368 C405.557220,452.934326 421.738861,431.989288 437.795319,410.948700 C439.694000,408.460632 441.959381,407.080627 445.005676,407.413177 C449.206268,407.871735 453.578430,406.912567 457.608582,408.552765 C457.996063,410.987793 456.428253,412.230377 455.369934,413.615417 C437.178009,437.423492 418.929657,461.188477 400.738220,484.996918 C396.595245,490.419159 392.494202,495.882416 388.610809,501.490875 C386.005371,505.253693 384.111481,504.876678 381.509918,501.427582 C365.673035,480.430969 349.721680,459.520630 333.784790,438.599609 C327.429718,430.257111 320.995117,421.975189 314.644470,413.629364 C313.569031,412.216003 312.075226,410.969757 312.077362,408.954712 C319.254608,404.881287 328.654388,406.508240 333.587921,412.891357 C348.856781,432.646637 364.039490,452.468445 379.460632,472.558685 z" style="fill: rgb(199, 161, 77);"/>
    <path opacity="1.000000" stroke="none" d=" M226.797424,397.818024 C226.784256,393.023285 226.488815,388.674316 227.606659,384.427277 C229.079300,378.832397 233.251846,377.383911 237.601196,381.141266 C239.602066,382.869720 241.886124,383.318756 244.242905,384.134796 C256.983429,388.546417 270.107483,386.985809 283.127960,387.137726 C283.955627,387.147400 284.793060,387.218079 285.604553,387.372589 C286.063385,387.459930 286.478546,387.776306 287.874023,388.460541 C279.997162,393.212372 276.619171,403.989441 264.935455,401.411041 C256.640137,399.580444 249.236115,404.192596 241.308487,405.175293 C239.967804,405.341492 238.695465,406.549561 237.516037,407.440979 C232.526138,411.212677 228.831253,409.897217 227.478455,403.727417 C227.088821,401.950378 227.020172,400.102997 226.797424,397.818024 z" style="fill: rgb(200, 159, 68);"/>
  </g>
  <path opacity="1.000000" stroke="none" d=" M402.109131,267.139771 C404.956238,279.697296 407.241791,291.977051 410.606842,303.953461 C412.769531,311.650482 411.827240,318.571899 408.390381,325.526733 C409.078491,325.628296 409.254395,325.712372 409.379333,325.664215 C412.419067,324.492828 412.590118,318.563141 416.600433,320.039398 C422.324097,322.146393 428.027283,325.147461 430.734192,331.200623 C432.282471,334.662872 433.105011,338.461365 434.124847,342.144348 C434.854401,344.779114 434.072296,346.928406 431.949310,348.812744 C404.032471,373.590729 364.879028,372.887054 337.905182,348.562439 C336.776428,347.544525 335.410828,346.421661 335.802856,344.817657 C337.665649,337.195618 337.538879,328.112976 346.085632,324.331116 C355.296234,320.255524 358.016235,313.183960 359.975769,303.962006 C367.260773,269.677521 375.444397,235.583832 383.332672,201.428223 C383.615509,200.203629 383.363495,198.689835 385.794006,197.189896 C391.257385,220.626862 396.631287,243.680145 402.109131,267.139771 M395.228424,294.411285 C393.438782,294.458099 391.646667,294.500671 391.027985,296.791931 C392.949463,299.247284 395.346222,299.291809 397.345398,297.460724 C399.133331,295.823120 397.225769,295.082214 395.228424,294.411285 M378.044739,297.971893 C379.587036,296.800842 379.287476,295.688171 377.749115,294.938995 C375.795227,293.987396 373.926575,293.955475 372.578003,296.349121 C373.620300,298.568268 375.335754,298.931183 378.044739,297.971893 z" style="fill: rgb(92, 35, 95);"/>
</svg>
